<svg width="53" height="53" viewBox="0 0 53 53" fill="none" xmlns="http://www.w3.org/2000/svg">
<path d="M19.3012 22.9317L4.1011 7.73168C2.96359 6.59417 2.96359 4.7499 4.1011 3.61239C5.23861 2.47487 7.08288 2.47488 8.22038 3.61238L23.4205 18.8125L19.3012 22.9317ZM49.3608 7.73167L34.1607 22.9317L30.0415 18.8125L45.2415 3.61239C46.379 2.47488 48.2233 2.47488 49.3608 3.61239C50.4983 4.7499 50.4983 6.59417 49.3608 7.73167ZM22.6117 26.2422L26.731 22.1229L30.8502 26.2422L26.731 30.3615L22.6117 26.2422ZM30.0415 33.672L34.1607 29.5527L49.3608 44.7528C50.4983 45.8903 50.4983 47.7346 49.3608 48.8721C48.2233 50.0096 46.379 50.0096 45.2415 48.8721L30.0415 33.672ZM23.4205 33.672L8.2204 48.8721C7.08289 50.0096 5.23862 50.0096 4.10111 48.8721C2.9636 47.7346 2.9636 45.8903 4.10111 44.7528L19.3012 29.5527L23.4205 33.672Z" fill="white" stroke="white" stroke-width="4.68175"/>
</svg>
